<svg xmlns="http://www.w3.org/2000/svg" viewBox="0 0 140 100" fill="#1a1a1a">
  <!-- Cathedral Ruins -->
  <rect x="10" y="40" width="8" height="55" rx="1"/>
  <rect x="25" y="30" width="6" height="65" rx="1"/>
  <rect x="40" y="45" width="8" height="50" rx="1"/>
  <rect x="58" y="35" width="6" height="60" rx="1"/>
  <rect x="73" y="50" width="8" height="45" rx="1"/>
  <rect x="90" y="25" width="6" height="70" rx="1"/>
  <rect x="108" y="42" width="8" height="53" rx="1"/>
  <rect x="122" y="38" width="6" height="57" rx="1"/>
  <!-- Gothic window arches -->
  <path d="M26,55 Q28,48 30,55" stroke="#1a1a1a" stroke-width="1.5" fill="none"/>
  <path d="M59,60 Q61,52 63,60" stroke="#1a1a1a" stroke-width="1.5" fill="none"/>
  <path d="M91,50 Q93,42 95,50" stroke="#1a1a1a" stroke-width="1.5" fill="none"/>
  <rect x="5" y="90" width="130" height="5" rx="1"/>
</svg>
